<svg width="73" height="72" viewBox="0 0 73 72" fill="none" xmlns="http://www.w3.org/2000/svg">
<rect x="0.5" width="72" height="72" rx="36" fill="white"/>
<g clip-path="url(#clip0_1_184)">
<path d="M32.4665 28.0089H27.9083C27.4865 28.0089 27.1446 28.3499 27.1446 28.7706C27.1446 29.1914 27.4865 29.5323 27.9083 29.5323H32.4665C32.8882 29.5323 33.2303 29.1914 33.2303 28.7706C33.2303 28.3499 32.8882 28.0089 32.4665 28.0089Z" fill="#D0A144"/>
<path d="M32.4665 31.0559H27.9083C27.4865 31.0559 27.1446 31.3969 27.1446 31.8176C27.1446 32.2384 27.4865 32.5793 27.9083 32.5793H32.4665C32.8882 32.5793 33.2303 32.2384 33.2303 31.8176C33.2303 31.3969 32.8882 31.0559 32.4665 31.0559Z" fill="#D0A144"/>
<path d="M32.4665 34.1031H27.9083C27.4865 34.1031 27.1446 34.4441 27.1446 34.8649C27.1446 35.2856 27.4865 35.6266 27.9083 35.6266H32.4665C32.8882 35.6266 33.2303 35.2856 33.2303 34.8649C33.2303 34.4441 32.8882 34.1031 32.4665 34.1031Z" fill="#D0A144"/>
<path d="M32.4665 37.1501H27.9083C27.4865 37.1501 27.1446 37.4911 27.1446 37.9119C27.1446 38.3326 27.4865 38.6736 27.9083 38.6736H32.4665C32.8882 38.6736 33.2303 38.3326 33.2303 37.9119C33.2303 37.4911 32.8882 37.1501 32.4665 37.1501Z" fill="#D0A144"/>
<path d="M32.4665 40.2483H27.9083C27.4865 40.2483 27.1446 40.5895 27.1446 41.01C27.1446 41.4307 27.4865 41.7717 27.9083 41.7717H32.4665C32.8882 41.7717 33.2303 41.4307 33.2303 41.01C33.2303 40.5895 32.8882 40.2483 32.4665 40.2483Z" fill="#D0A144"/>
<path d="M35.0315 29.5323H39.5897C40.0116 29.5323 40.3534 29.1914 40.3534 28.7706C40.3534 28.3499 40.0116 28.0089 39.5897 28.0089H35.0315C34.6098 28.0089 34.2677 28.3499 34.2677 28.7706C34.2677 29.1914 34.6098 29.5323 35.0315 29.5323Z" fill="#D0A144"/>
<path d="M35.0315 32.5793H39.5897C40.0116 32.5793 40.3534 32.2384 40.3534 31.8176C40.3534 31.3969 40.0116 31.0559 39.5897 31.0559H35.0315C34.6098 31.0559 34.2677 31.3969 34.2677 31.8176C34.2677 32.2384 34.6098 32.5793 35.0315 32.5793Z" fill="#D0A144"/>
<path d="M37.9906 34.8649C37.9906 34.4441 37.6487 34.1031 37.2269 34.1031H35.0315C34.6098 34.1031 34.2677 34.4441 34.2677 34.8649C34.2677 35.2856 34.6098 35.6266 35.0315 35.6266H37.2269C37.6487 35.6266 37.9906 35.2856 37.9906 34.8649Z" fill="#D0A144"/>
<path d="M45.2257 40.5697C44.8967 40.3065 44.4162 40.359 44.152 40.6871L42.185 43.133L40.9672 42.253C40.6257 42.0061 40.1479 42.0822 39.9005 42.4228C39.6531 42.7636 39.7295 43.2399 40.071 43.4866L41.8775 44.7921C42.0127 44.8897 42.1695 44.9371 42.3252 44.9371C42.5494 44.9371 42.7709 44.8389 42.9213 44.6518L45.3436 41.6405C45.6075 41.3124 45.5548 40.8329 45.2257 40.5697Z" fill="#D0A144"/>
<path d="M47.1561 38.2314C46.1612 37.2217 44.8829 36.5854 43.4978 36.3979V26.0677C43.4978 24.3763 42.1179 23 40.422 23H27.0761C25.3799 23 24 24.3763 24 26.0677V43.7128C24 45.4044 25.3799 46.7807 27.0759 46.7807H37.8099C39.0178 48.1958 40.7545 49 42.6334 49C46.131 49 48.9763 46.1602 48.9763 42.6696C48.9763 40.9986 48.3299 39.4224 47.1561 38.2314ZM25.5275 43.7128V26.0677C25.5275 25.2163 26.2222 24.5234 27.0761 24.5234H40.422C41.2758 24.5234 41.9703 25.2163 41.9703 26.0677V36.3737C38.7833 36.7056 36.2906 39.4023 36.2906 42.6696C36.2906 43.5751 36.4799 44.4507 36.8431 45.2571H27.0761C26.2222 45.2571 25.5275 44.5644 25.5275 43.7128ZM42.6334 47.4766C41.1081 47.4766 39.7059 46.7781 38.7861 45.5606C38.1528 44.7221 37.8179 43.7225 37.8179 42.6696C37.8179 40.0191 39.9782 37.8626 42.6334 37.8626C42.6585 37.8626 42.6838 37.863 42.7088 37.8634L42.7206 37.8636C43.9881 37.886 45.1765 38.3958 46.0667 39.2992C46.958 40.2035 47.4488 41.4007 47.4488 42.6696C47.4488 45.3201 45.2887 47.4766 42.6334 47.4766Z" fill="#D0A144"/>
</g>
<defs>
<clipPath id="clip0_1_184">
<rect width="25" height="26" fill="white" transform="translate(24 23)"/>
</clipPath>
</defs>
</svg>
