<svg width="72" height="72" viewBox="0 0 72 72" fill="none" xmlns="http://www.w3.org/2000/svg">
<rect width="72" height="72" rx="36" fill="white"/>
<g clip-path="url(#clip0_1_157)">
<path d="M29.5207 32.1726C29.3379 31.9898 29.0407 31.9898 28.8579 32.1726C28.6747 32.3559 28.6747 32.6526 28.8579 32.8354C29.0408 33.0187 29.3379 33.0187 29.5207 32.8354C29.7039 32.6526 29.7039 32.3559 29.5207 32.1726Z" fill="#D0A144"/>
<path d="M35.8687 44.9867C36.0754 44.7067 36.1871 44.3695 36.1871 44.0148C36.1871 43.1103 35.4511 42.3743 34.5465 42.3743H26.578C26.1396 42.3743 25.7276 42.5449 25.4179 42.8547C25.1081 43.1644 24.9375 43.5764 24.9375 44.0148C24.9375 44.3781 25.0563 44.714 25.2569 44.9861C24.5105 45.3785 24 46.1613 24 47.0616V47.5303C24 47.7892 24.2099 47.9991 24.4688 47.9991H36.6558C36.9146 47.9991 37.1245 47.7892 37.1245 47.5303V47.0616C37.1245 46.1618 36.6145 45.3793 35.8687 44.9867ZM26.0808 43.5175C26.2135 43.3848 26.3901 43.3117 26.578 43.3117H34.5465C34.9342 43.3117 35.2496 43.6271 35.2496 44.0148C35.2496 44.2027 35.1765 44.3793 35.0437 44.512C34.911 44.6448 34.7344 44.7179 34.5465 44.7179H26.578C26.1903 44.7179 25.875 44.4025 25.875 44.0148C25.875 43.8269 25.948 43.6503 26.0808 43.5175ZM24.9375 47.0616C24.9375 46.2862 25.5683 45.6554 26.3437 45.6554H26.578H34.5465H34.7809C35.5562 45.6554 36.1871 46.2862 36.1871 47.0616H24.9375Z" fill="#D0A144"/>
<path d="M47.5668 43.6934C47.4076 43.4467 47.2177 43.2285 47.0022 43.045L44.812 41.1347C44.7949 41.109 44.7752 41.0846 44.7525 41.062C44.7144 41.024 44.6713 40.9943 44.6255 40.9721L43.3009 39.8168L37.1702 34.4688C37.4211 34.2064 37.5593 33.8634 37.5593 33.4985C37.5593 33.1227 37.413 32.7695 37.1471 32.5036C37.0311 32.3878 36.8993 32.2967 36.7584 32.23L37.3256 31.6628C37.4842 31.705 37.6471 31.7265 37.8101 31.7265C38.2901 31.7265 38.7702 31.5438 39.1357 31.1783C39.4899 30.8241 39.685 30.3532 39.685 29.8525C39.685 29.3517 39.4899 28.8808 39.1357 28.5266L35.1585 24.5495C34.8042 24.1952 34.3333 24.0001 33.8324 24.0001C33.3317 24.0001 32.861 24.1952 32.5068 24.5495C32.0172 25.039 31.8561 25.7341 32.0223 26.3595L26.3633 32.0185C26.2069 31.9769 26.0442 31.9549 25.878 31.9549C25.377 31.9549 24.9063 32.1499 24.5524 32.5038C23.8213 33.2349 23.8213 34.4244 24.5524 35.1555L28.5296 39.1328C28.8952 39.4983 29.3753 39.6811 29.8554 39.6811C30.3356 39.6811 30.8158 39.4983 31.1814 39.1328C31.6709 38.6432 31.8321 37.9481 31.6659 37.3227L32.2319 36.7566C32.2999 36.8987 32.3922 37.0297 32.5068 37.1443C32.7724 37.4099 33.1255 37.5562 33.5013 37.5562C33.8657 37.5562 34.2087 37.4183 34.4714 37.1676L41.0014 44.6701C41.0194 44.6982 41.0404 44.725 41.0649 44.7496C41.0733 44.758 41.0822 44.7656 41.0911 44.7732L43.0369 47.0089C43.0853 47.066 43.137 47.1221 43.1907 47.1758C43.7251 47.71 44.431 47.9999 45.1721 47.9999C45.3027 47.9999 45.4346 47.9909 45.5666 47.9727C46.4492 47.8505 47.212 47.3225 47.6593 46.5238C48.1493 45.6485 48.1128 44.5373 47.5668 43.6934ZM33.1697 25.2124C33.3469 25.0352 33.5823 24.9376 33.8325 24.9376C34.083 24.9376 34.3185 25.0352 34.4956 25.2124L38.4729 29.1896C38.65 29.3667 38.7475 29.6022 38.7475 29.8525C38.7475 30.1029 38.65 30.3383 38.4728 30.5155C38.1074 30.8809 37.5128 30.8809 37.1474 30.5155L33.17 26.5381C33.1699 26.538 33.1698 26.5379 33.1697 26.5378C32.8043 26.1724 32.8043 25.5778 33.1697 25.2124ZM30.5184 38.4699C30.1529 38.8354 29.558 38.8354 29.1925 38.4699L25.2153 34.4927C24.8497 34.1271 24.8497 33.5323 25.2153 33.1667C25.3921 32.9899 25.6275 32.8924 25.878 32.8924C26.1285 32.8924 26.3637 32.9898 26.5405 33.1665L30.5184 37.1444C30.8839 37.5098 30.8839 38.1045 30.5184 38.4699ZM32.492 35.1708L31.1813 36.4815L27.2037 32.5039L32.5068 27.2007L36.4844 31.1783L35.1713 32.4914C35.167 32.4955 35.1629 32.4994 35.1584 32.5039L32.5082 35.1541C32.5027 35.1595 32.4974 35.1651 32.492 35.1708ZM34.1657 36.1487C34.1648 36.1496 34.1639 36.1505 34.1629 36.1514L33.8328 36.4815C33.7443 36.57 33.6266 36.6188 33.5012 36.6188C33.3759 36.6188 33.2582 36.57 33.1697 36.4815C33.0811 36.3929 33.0323 36.275 33.0323 36.1497C33.0323 36.0269 33.0791 35.9115 33.1641 35.8244L35.8266 33.1618C36.0091 32.9844 36.3041 32.9866 36.4845 33.1667C36.5731 33.2553 36.6219 33.3732 36.6219 33.4985C36.6219 33.6238 36.5732 33.7414 36.4844 33.8299L36.1562 34.1581C36.154 34.1603 36.1517 34.1625 36.1495 34.1648L34.1657 36.1487ZM35.1364 36.5037L36.5064 35.1338L42.3068 40.1932L40.1902 42.3099L35.1364 36.5037ZM40.8071 43.0187L43.0149 40.8109L43.723 41.4286L41.424 43.7276L40.8071 43.0187ZM46.8414 46.0659C46.5389 46.606 46.0274 46.9625 45.4382 47.0441C44.8502 47.1254 44.2726 46.9318 43.8534 46.5128C43.8174 46.4768 43.7829 46.4393 43.7507 46.4012C43.7492 46.3994 43.7477 46.3977 43.7462 46.3959L42.0409 44.4365L44.4311 42.0462L46.3881 43.7532C46.3896 43.7546 46.3911 43.7558 46.3926 43.7571C46.5391 43.8817 46.6691 44.0313 46.7794 44.2022C47.1339 44.7499 47.1587 45.499 46.8414 46.0659Z" fill="#D0A144"/>
<path d="M32.8353 28.8577C32.6522 28.6747 32.3555 28.6747 32.1724 28.8577L30.1836 30.8466C30.0006 31.0296 30.0006 31.3264 30.1836 31.5094C30.2752 31.601 30.3951 31.6467 30.5151 31.6467C30.635 31.6467 30.755 31.6009 30.8465 31.5094L32.8353 29.5206C33.0184 29.3376 33.0184 29.0408 32.8353 28.8577Z" fill="#D0A144"/>
</g>
<defs>
<clipPath id="clip0_1_157">
<rect width="24" height="24" fill="white" transform="translate(24 24)"/>
</clipPath>
</defs>
</svg>
