<svg width="72" height="72" viewBox="0 0 72 72" fill="none" xmlns="http://www.w3.org/2000/svg">
<rect width="72" height="72" rx="36" fill="white"/>
<g clip-path="url(#clip0_1_128)">
<path d="M37.271 46.2847H34.7289C34.6156 46.2847 34.507 46.2406 34.4269 46.1623C34.3468 46.0839 34.3018 45.9777 34.3018 45.8669V25.6871C34.3018 25.2465 34.4807 24.824 34.7992 24.5124C35.1177 24.2009 35.5496 24.0259 35.9999 24.0259C36.4503 24.0259 36.8822 24.2009 37.2007 24.5124C37.5192 24.824 37.6981 25.2465 37.6981 25.6871V45.8673C37.698 45.978 37.6529 46.0842 37.5728 46.1624C37.4927 46.2407 37.3842 46.2847 37.271 46.2847ZM35.156 45.449H36.8439V25.6871C36.8439 25.4681 36.755 25.2581 36.5967 25.1033C36.4384 24.9485 36.2238 24.8615 35.9999 24.8615C35.7761 24.8615 35.5615 24.9485 35.4032 25.1033C35.2449 25.2581 35.156 25.4681 35.156 25.6871V45.449Z" fill="#D0A144"/>
<path d="M25.707 29.627H24.2408C23.8929 29.6209 23.5614 29.4814 23.3176 29.2386C23.0738 28.9957 22.9372 28.669 22.9372 28.3286C22.9372 27.9883 23.0738 27.6615 23.3176 27.4187C23.5614 27.1759 23.8929 27.0364 24.2408 27.0303H25.499C25.6123 27.0303 25.7209 27.0743 25.801 27.1526C25.8811 27.231 25.9261 27.3373 25.9261 27.4481C25.9261 27.5589 25.8811 27.6652 25.801 27.7435C25.7209 27.8219 25.6123 27.8659 25.499 27.8659H24.2408C24.1178 27.8695 24.0011 27.9198 23.9154 28.0062C23.8297 28.0926 23.7818 28.2082 23.7818 28.3286C23.7818 28.449 23.8297 28.5646 23.9154 28.651C24.0011 28.7374 24.1178 28.7877 24.2408 28.7913H25.707C25.8203 28.7913 25.9289 28.8354 26.009 28.9137C26.0891 28.9921 26.1341 29.0983 26.1341 29.2091C26.1341 29.32 26.0891 29.4262 26.009 29.5046C25.9289 29.5829 25.8203 29.627 25.707 29.627Z" fill="#D0A144"/>
<path d="M34.729 29.627H28.2906C28.1773 29.627 28.0687 29.5829 27.9886 29.5046C27.9085 29.4262 27.8635 29.32 27.8635 29.2091C27.8635 29.0983 27.9085 28.9921 27.9886 28.9137C28.0687 28.8354 28.1773 28.7913 28.2906 28.7913H34.3019V27.8659H28.4981C28.3849 27.8659 28.2762 27.8219 28.1961 27.7435C28.116 27.6652 28.071 27.5589 28.071 27.4481C28.071 27.3373 28.116 27.231 28.1961 27.1526C28.2762 27.0743 28.3849 27.0303 28.4981 27.0303H34.729C34.8423 27.0303 34.9509 27.0743 35.031 27.1526C35.1111 27.231 35.1561 27.3373 35.1561 27.4481V29.2091C35.1561 29.32 35.1111 29.4262 35.031 29.5046C34.9509 29.5829 34.8423 29.627 34.729 29.627Z" fill="#D0A144"/>
<path d="M43.6165 29.627H37.2712C37.1579 29.627 37.0493 29.5829 36.9692 29.5046C36.8891 29.4262 36.8441 29.32 36.8441 29.2091V27.4481C36.8441 27.3373 36.8891 27.231 36.9692 27.1526C37.0493 27.0743 37.1579 27.0303 37.2712 27.0303H43.4089C43.5222 27.0303 43.6309 27.0743 43.711 27.1526C43.791 27.231 43.836 27.3373 43.836 27.4481C43.836 27.5589 43.791 27.6652 43.711 27.7435C43.6309 27.8219 43.5222 27.8659 43.4089 27.8659H37.6983V28.7913H43.6165C43.7298 28.7913 43.8384 28.8354 43.9185 28.9137C43.9986 28.9921 44.0436 29.0983 44.0436 29.2091C44.0436 29.32 43.9986 29.4262 43.9185 29.5046C43.8384 29.5829 43.7298 29.627 43.6165 29.627Z" fill="#D0A144"/>
<path d="M47.7549 29.627H46.2929C46.1797 29.627 46.071 29.5829 45.9909 29.5046C45.9108 29.4262 45.8658 29.32 45.8658 29.2091C45.8658 29.0983 45.9108 28.9921 45.9909 28.9137C46.071 28.8354 46.1797 28.7913 46.2929 28.7913H47.7549C47.8779 28.7877 47.9946 28.7374 48.0803 28.651C48.166 28.5646 48.2139 28.449 48.2139 28.3286C48.2139 28.2082 48.166 28.0926 48.0803 28.0062C47.9946 27.9198 47.8779 27.8695 47.7549 27.8659H46.5035C46.3902 27.8659 46.2816 27.8219 46.2015 27.7435C46.1214 27.6652 46.0764 27.5589 46.0764 27.4481C46.0764 27.3373 46.1214 27.231 46.2015 27.1526C46.2816 27.0743 46.3902 27.0303 46.5035 27.0303H47.7549C48.1028 27.0364 48.4343 27.1759 48.6781 27.4187C48.9219 27.6615 49.0585 27.9883 49.0585 28.3286C49.0585 28.669 48.9219 28.9957 48.6781 29.2386C48.4343 29.4814 48.1028 29.6209 47.7549 29.627Z" fill="#D0A144"/>
<path d="M41.4093 48.9737H30.591C30.5262 48.9737 30.4622 48.9592 30.404 48.9314C30.3457 48.9036 30.2947 48.8632 30.2547 48.8132C30.2148 48.7633 30.1871 48.7051 30.1735 48.643C30.16 48.581 30.1611 48.5168 30.1767 48.4552C30.3528 47.629 30.8063 46.884 31.4651 46.3389C32.1238 45.7938 32.95 45.4799 33.8122 45.447H38.1882C39.0503 45.4799 39.8765 45.7938 40.5352 46.3389C41.194 46.884 41.6475 47.629 41.8236 48.4552C41.8392 48.5168 41.8403 48.581 41.8268 48.643C41.8133 48.7051 41.7855 48.7633 41.7456 48.8132C41.7057 48.8632 41.6546 48.9036 41.5964 48.9314C41.5381 48.9592 41.4741 48.9737 41.4093 48.9737ZM31.1817 48.1381H40.8186C40.6153 47.6102 40.2573 47.1527 39.7894 46.823C39.3214 46.4933 38.7644 46.3061 38.1882 46.2847H33.8122C33.2359 46.3061 32.6789 46.4933 32.211 46.823C31.743 47.1527 31.385 47.6102 31.1817 48.1381Z" fill="#D0A144"/>
<path d="M42.5657 48.9736H29.4343C29.321 48.9736 29.2124 48.9295 29.1323 48.8512C29.0522 48.7728 29.0072 48.6666 29.0072 48.5557C29.0072 48.4449 29.0522 48.3387 29.1323 48.2603C29.2124 48.182 29.321 48.1379 29.4343 48.1379H42.5657C42.6789 48.1379 42.7876 48.182 42.8677 48.2603C42.9478 48.3387 42.9928 48.4449 42.9928 48.5557C42.9928 48.6666 42.9478 48.7728 42.8677 48.8512C42.7876 48.9295 42.6789 48.9736 42.5657 48.9736Z" fill="#D0A144"/>
<path d="M50.5213 40.1031H39.4847C39.4132 40.1032 39.3429 40.0857 39.2801 40.0522C39.2173 40.0187 39.1641 39.9704 39.1254 39.9116C39.0867 39.8528 39.0636 39.7854 39.0584 39.7157C39.0532 39.6459 39.066 39.576 39.0956 39.5123L43.7851 29.4122C43.8082 29.3621 43.8412 29.317 43.8822 29.2793C43.9231 29.2417 43.9713 29.2124 44.0238 29.193C44.0764 29.1736 44.1324 29.1646 44.1885 29.1664C44.2447 29.1682 44.2999 29.1808 44.3511 29.2035C44.4022 29.2263 44.4483 29.2586 44.4867 29.2988C44.525 29.339 44.5549 29.3862 44.5745 29.4377C44.5942 29.4891 44.6033 29.5439 44.6013 29.5988C44.5993 29.6538 44.5862 29.7078 44.5629 29.7578L40.1476 39.2675H49.8567L45.4452 29.7578C45.4221 29.7078 45.4092 29.6538 45.4074 29.599C45.4055 29.5441 45.4147 29.4894 45.4345 29.4381C45.4542 29.3867 45.4841 29.3396 45.5225 29.2996C45.5608 29.2595 45.6068 29.2272 45.6579 29.2046C45.709 29.1819 45.7642 29.1693 45.8203 29.1675C45.8763 29.1657 45.9322 29.1747 45.9847 29.194C46.0372 29.2134 46.0853 29.2426 46.1263 29.2801C46.1672 29.3176 46.2002 29.3627 46.2234 29.4126L50.9082 39.5128C50.9376 39.5762 50.9504 39.6459 50.9452 39.7154C50.9401 39.785 50.9172 39.8521 50.8788 39.9108C50.8403 39.9695 50.7874 40.0178 50.725 40.0514C50.6626 40.085 50.5925 40.1028 50.5213 40.1031Z" fill="#D0A144"/>
<path d="M45.0467 45.4323H44.9578C41.5381 45.4323 39.0558 43.0157 39.0558 39.6858C39.0558 39.5749 39.1008 39.4687 39.1809 39.3903C39.261 39.312 39.3697 39.2679 39.4829 39.2679H50.5212C50.6344 39.2679 50.7431 39.312 50.8232 39.3903C50.9033 39.4687 50.9483 39.5749 50.9483 39.6858C50.9483 43.0178 48.466 45.4323 45.0467 45.4323ZM39.925 40.1036C40.1155 42.77 42.1309 44.5967 44.9578 44.5967H45.0467C47.8732 44.5967 49.8891 42.77 50.0791 40.1036H39.925Z" fill="#D0A144"/>
<path d="M45.0022 30.2229C44.5869 30.223 44.1809 30.1026 43.8356 29.8769C43.4903 29.6513 43.2211 29.3305 43.0621 28.9551C42.9032 28.5798 42.8615 28.1668 42.9425 27.7683C43.0235 27.3699 43.2235 27.0039 43.5172 26.7166C43.8108 26.4293 44.185 26.2337 44.5923 26.1544C44.9996 26.0752 45.4218 26.1159 45.8055 26.2714C46.1891 26.4269 46.5171 26.6903 46.7477 27.0281C46.9784 27.3659 47.1015 27.7631 47.1014 28.1694C47.1007 28.7138 46.8793 29.2357 46.4858 29.6207C46.0923 30.0057 45.5588 30.2222 45.0022 30.2229ZM45.0022 26.951C44.7559 26.9509 44.5151 27.0223 44.3102 27.1561C44.1053 27.29 43.9457 27.4802 43.8513 27.7028C43.757 27.9254 43.7323 28.1704 43.7803 28.4068C43.8283 28.6431 43.9469 28.8603 44.121 29.0307C44.2952 29.2011 44.5171 29.3172 44.7587 29.3642C45.0003 29.4113 45.2507 29.3872 45.4783 29.295C45.7059 29.2028 45.9004 29.0466 46.0373 28.8463C46.1742 28.6459 46.2472 28.4103 46.2472 28.1694C46.2469 27.8464 46.1156 27.5368 45.8822 27.3084C45.6488 27.08 45.3324 26.9515 45.0022 26.951Z" fill="#D0A144"/>
<path d="M32.515 40.1032H21.4789C21.4075 40.1032 21.3371 40.0856 21.2744 40.0521C21.2117 40.0186 21.1586 39.9703 21.1199 39.9115C21.0812 39.8527 21.0582 39.7854 21.0531 39.7157C21.0479 39.6459 21.0607 39.576 21.0903 39.5124L25.7806 29.4123C25.8274 29.3114 25.9134 29.2328 26.0194 29.1938C26.1255 29.1548 26.2431 29.1586 26.3463 29.2044C26.4495 29.2503 26.5298 29.3343 26.5697 29.4381C26.6095 29.5419 26.6056 29.6569 26.5588 29.7578L22.1435 39.2676H31.8526L27.4411 29.7578C27.4166 29.7077 27.4026 29.6533 27.3998 29.5977C27.397 29.5422 27.4056 29.4867 27.4251 29.4345C27.4445 29.3823 27.4744 29.3343 27.5131 29.2936C27.5517 29.2528 27.5982 29.2199 27.65 29.197C27.7017 29.174 27.7576 29.1614 27.8144 29.1598C27.8712 29.1583 27.9278 29.1678 27.9808 29.1879C28.0337 29.208 28.0821 29.2382 28.123 29.2768C28.1639 29.3154 28.1965 29.3616 28.2189 29.4127L32.9041 39.5128C32.9336 39.5765 32.9463 39.6464 32.9411 39.7161C32.9358 39.7858 32.9128 39.8531 32.8741 39.9118C32.8354 39.9705 32.7822 40.0188 32.7195 40.0523C32.6568 40.0857 32.5865 40.1032 32.515 40.1032Z" fill="#D0A144"/>
<path d="M27.0422 45.4323H26.9533C23.534 45.4323 21.0518 43.0178 21.0518 39.6858C21.0518 39.5749 21.0968 39.4687 21.1769 39.3903C21.2569 39.312 21.3656 39.2679 21.4789 39.2679H32.5171C32.6304 39.2679 32.739 39.312 32.8191 39.3903C32.8992 39.4687 32.9442 39.5749 32.9442 39.6858C32.9442 43.0178 30.4619 45.4323 27.0422 45.4323ZM21.9209 40.1036C22.111 42.77 24.1268 44.5967 26.9533 44.5967H27.0422C29.8691 44.5967 31.8846 42.77 32.075 40.1036H21.9209Z" fill="#D0A144"/>
<path d="M26.9976 30.2229C26.5824 30.2229 26.1764 30.1024 25.8311 29.8767C25.4858 29.651 25.2167 29.3302 25.0578 28.9549C24.8989 28.5795 24.8574 28.1665 24.9384 27.7681C25.0195 27.3696 25.2195 27.0037 25.5131 26.7164C25.8068 26.4292 26.181 26.2336 26.5883 26.1544C26.9956 26.0752 27.4178 26.1159 27.8014 26.2715C28.1851 26.427 28.5129 26.6903 28.7436 27.0281C28.9742 27.366 29.0973 27.7631 29.0972 28.1694C29.0965 28.7139 28.8751 29.2359 28.4815 29.6208C28.0879 30.0058 27.5542 30.2223 26.9976 30.2229ZM26.9976 26.951C26.7513 26.951 26.5105 27.0225 26.3057 27.1564C26.1009 27.2902 25.9413 27.4805 25.847 27.7031C25.7528 27.9257 25.7281 28.1707 25.7762 28.407C25.8242 28.6434 25.9428 28.8605 26.117 29.0308C26.2912 29.2012 26.5131 29.3173 26.7547 29.3643C26.9963 29.4113 27.2467 29.3872 27.4742 29.295C27.7018 29.2027 27.8963 29.0466 28.0332 28.8462C28.17 28.6459 28.243 28.4103 28.243 28.1694C28.2427 27.8463 28.1114 27.5366 27.8779 27.3082C27.6444 27.0798 27.3278 26.9514 26.9976 26.951Z" fill="#D0A144"/>
</g>
<defs>
<clipPath id="clip0_1_128">
<rect width="30" height="25" fill="white" transform="translate(21 24)"/>
</clipPath>
</defs>
</svg>
