<svg width="19" height="20" viewBox="0 0 19 20" fill="none" xmlns="http://www.w3.org/2000/svg">
<path d="M18.6308 7.41248C18.5731 7.24267 18.467 7.09346 18.3255 6.98327C18.184 6.87308 18.0133 6.80674 17.8346 6.79243L12.6054 6.37692L10.3426 1.36791C10.2706 1.20658 10.1533 1.06955 10.0051 0.973366C9.8569 0.877181 9.68401 0.825949 9.50732 0.825852C9.33063 0.825755 9.15768 0.876797 9.00935 0.972819C8.86103 1.06884 8.74366 1.20574 8.67142 1.36699L6.4086 6.37692L1.17945 6.79243C1.00376 6.80635 0.8358 6.87059 0.695662 6.97746C0.555524 7.08434 0.449144 7.22933 0.389249 7.39508C0.329354 7.56083 0.318479 7.74033 0.357927 7.9121C0.397375 8.08387 0.485474 8.24064 0.611685 8.36365L4.47599 12.1307L3.10931 18.0487C3.06782 18.2279 3.08112 18.4153 3.14749 18.5868C3.21386 18.7583 3.33024 18.9059 3.48153 19.0104C3.63282 19.1149 3.81202 19.1715 3.9959 19.1729C4.17977 19.1743 4.35982 19.1204 4.51268 19.0182L9.50702 15.6887L14.5014 19.0182C14.6576 19.122 14.8419 19.1754 15.0294 19.1713C15.2168 19.1672 15.3986 19.1057 15.5501 18.9952C15.7017 18.8848 15.8157 18.7305 15.877 18.5533C15.9383 18.376 15.9438 18.1843 15.8928 18.0038L14.2152 12.1335L18.3758 8.38933C18.6482 8.14352 18.7482 7.76011 18.6308 7.41248Z" fill="#F3CD03"/>
</svg>
